<svg width="18" height="16" viewBox="0 0 18 16" fill="none" xmlns="http://www.w3.org/2000/svg">
<path d="M0.5625 10.0126C0.711684 10.0126 0.854758 10.0718 0.960248 10.1773C1.06574 10.2828 1.125 10.4259 1.125 10.5751V13.3876C1.125 13.6859 1.24353 13.9721 1.4545 14.1831C1.66548 14.394 1.95163 14.5126 2.25 14.5126H15.75C16.0484 14.5126 16.3345 14.394 16.5455 14.1831C16.7565 13.9721 16.875 13.6859 16.875 13.3876V10.5751C16.875 10.4259 16.9343 10.2828 17.0398 10.1773C17.1452 10.0718 17.2883 10.0126 17.4375 10.0126C17.5867 10.0126 17.7298 10.0718 17.8352 10.1773C17.9407 10.2828 18 10.4259 18 10.5751V13.3876C18 13.9843 17.7629 14.5566 17.341 14.9786C16.919 15.4005 16.3467 15.6376 15.75 15.6376H2.25C1.65326 15.6376 1.08097 15.4005 0.65901 14.9786C0.237053 14.5566 0 13.9843 0 13.3876V10.5751C0 10.4259 0.0592632 10.2828 0.164752 10.1773C0.270242 10.0718 0.413316 10.0126 0.5625 10.0126Z" fill="#09417E"/>
<path d="M8.60197 12.2108C8.65422 12.2631 8.7163 12.3047 8.78463 12.3331C8.85297 12.3614 8.92623 12.376 9.00022 12.376C9.07421 12.376 9.14747 12.3614 9.21581 12.3331C9.28415 12.3047 9.34622 12.2631 9.39847 12.2108L12.7735 8.83575C12.8791 8.73013 12.9384 8.58687 12.9384 8.4375C12.9384 8.28813 12.8791 8.14487 12.7735 8.03925C12.6679 7.93363 12.5246 7.87429 12.3752 7.87429C12.2258 7.87429 12.0826 7.93363 11.977 8.03925L9.56272 10.4546V0.5625C9.56272 0.413316 9.50346 0.270242 9.39797 0.164752C9.29248 0.0592632 9.14941 0 9.00022 0C8.85104 0 8.70796 0.0592632 8.60248 0.164752C8.49699 0.270242 8.43772 0.413316 8.43772 0.5625V10.4546L6.02347 8.03925C5.91785 7.93363 5.7746 7.87429 5.62522 7.87429C5.47585 7.87429 5.33259 7.93363 5.22697 8.03925C5.12135 8.14487 5.06201 8.28813 5.06201 8.4375C5.06201 8.58687 5.12135 8.73013 5.22697 8.83575L8.60197 12.2108Z" fill="#09417E"/>
</svg>
