<svg width="78" height="75" viewBox="0 0 78 75" fill="none" xmlns="http://www.w3.org/2000/svg">
<path d="M61.8854 72.4626C61.8854 73.1058 61.355 73.6251 60.7154 73.6251H33.5714C32.924 73.6251 32.4014 73.1058 32.4014 72.4626C32.4014 71.8193 32.924 71.3001 33.5714 71.3001H45.9734V50.2201C28.0873 49.4683 27.8774 31.2946 27.8774 31.1086L27.8852 30.9536L31.5044 4.87484C31.5902 4.23934 32.1752 3.79759 32.8226 3.88284C33.4622 3.97584 33.9146 4.55709 33.821 5.20034L30.2174 31.1861C30.233 32.5501 30.8492 47.9261 47.1434 47.9261C63.4688 47.9261 64.046 32.5656 64.0608 31.1861L60.458 5.20034C60.373 4.55709 60.8168 3.97584 61.4564 3.88284C62.0882 3.79759 62.6888 4.23934 62.7746 4.87484L66.4086 31.1086C66.4086 31.2946 66.191 49.4683 48.3134 50.2201V71.3001H60.7154C61.355 71.3001 61.8854 71.8193 61.8854 72.4626Z" fill="#06376B"/>
<path d="M61.6154 31.3239C61.5522 33.194 60.6474 45.4925 47.1394 45.4925C33.7312 45.4925 32.7344 33.5358 32.6626 31.3239L33.1961 27.5125H61.0827L61.6154 31.3239Z" fill="#06376B"/>
<path d="M22.4718 68.917C21.3782 70.7677 18.9719 71.3893 17.1093 70.3027C15.2466 69.2162 14.6211 66.8253 15.7146 64.9738C16.8082 63.1231 19.2145 62.5031 21.0771 63.5896C22.9398 64.6762 23.5661 67.0655 22.4718 68.917Z" fill="#06376B"/>
<path d="M18.2814 61.6574C17.1878 63.5073 14.7815 64.1281 12.9189 63.0416C11.0562 61.9558 10.4307 59.5649 11.5242 57.715C12.6186 55.8635 15.0241 55.2427 16.8867 56.3293C18.7494 57.4151 19.3757 59.8059 18.2814 61.6574Z" fill="#06376B"/>
<path d="M26.7042 61.7558C25.6099 63.6073 23.2043 64.228 21.3417 63.1415C19.4791 62.0549 18.8535 59.6641 19.9471 57.8134C21.0414 55.9619 23.4469 55.3411 25.3096 56.4277C27.1722 57.5134 27.7985 59.9043 26.7042 61.7558Z" fill="#06376B"/>
<path d="M30.9374 54.5941C29.8438 56.4455 27.4375 57.0663 25.5749 55.9798C23.7122 54.8932 23.0867 52.5023 24.181 50.6516C25.2746 48.8002 27.6801 48.1794 29.5435 49.2659C31.4046 50.3533 32.0309 52.7434 30.9374 54.5941Z" fill="#06376B"/>
<path d="M18.3238 47.2355C17.2295 49.087 14.824 49.7078 12.9613 48.6212C11.0987 47.5347 10.4731 45.1438 11.5667 43.2931C12.6603 41.4416 15.0666 40.8209 16.9292 41.9074C18.7918 42.994 19.4182 45.3848 18.3238 47.2355Z" fill="#06376B"/>
<path d="M26.7467 47.3339C25.6531 49.1846 23.2476 49.8061 21.3842 48.7196C19.5215 47.633 18.896 45.2421 19.9895 43.3907C21.0839 41.54 23.4894 40.92 25.352 42.0065C27.2155 43.0931 27.841 45.4832 26.7467 47.3339Z" fill="#06376B"/>
<path d="M22.5143 54.4949C21.4199 56.3456 19.0144 56.9664 17.1518 55.8806C15.2891 54.7941 14.6636 52.4032 15.7571 50.5517C16.8507 48.7018 19.257 48.0811 21.1196 49.1676C22.9823 50.2549 23.6086 52.645 22.5143 54.4949Z" fill="#06376B"/>
<path d="M14.0916 54.3964C12.9981 56.2471 10.5918 56.8687 8.72914 55.7821C6.8665 54.6956 6.24094 52.3047 7.33372 50.4532C8.42806 48.6025 10.8336 47.9818 12.6962 49.0675C14.5596 50.1549 15.186 52.5457 14.0916 54.3964Z" fill="#06376B"/>
<path d="M19.5001 42.2374C18.8551 42.2374 18.3317 41.7189 18.3301 41.078C18.327 40.5595 18.1772 36.0374 14.0401 36.0374C13.3935 36.0374 12.8701 35.5174 12.8701 34.8749C12.8701 34.2324 13.3935 33.7124 14.0401 33.7124C19.2848 33.7124 20.6701 38.5282 20.6701 41.0749C20.6701 41.7166 20.1467 42.2374 19.5001 42.2374Z" fill="#06376B"/>
</svg>
