<svg width="78" height="78" viewBox="0 0 78 78" fill="none" xmlns="http://www.w3.org/2000/svg">
<path fill-rule="evenodd" clip-rule="evenodd" d="M19.5 11.375C19.5 10.944 19.6712 10.5307 19.976 10.226C20.2807 9.92121 20.694 9.75 21.125 9.75H56.875C57.306 9.75 57.7193 9.92121 58.024 10.226C58.3288 10.5307 58.5 10.944 58.5 11.375V13H66.625C67.056 13 67.4693 13.1712 67.774 13.476C68.0788 13.7807 68.25 14.194 68.25 14.625V24.375C68.25 26.5299 67.394 28.5965 65.8702 30.1202C64.3465 31.644 62.2799 32.5 60.125 32.5H57.3901C54.886 39.585 48.4039 44.7915 40.625 45.4334V55.25H52C52.431 55.25 52.8443 55.4212 53.149 55.726C53.4538 56.0307 53.625 56.444 53.625 56.875V66.625C53.625 67.056 53.4538 67.4693 53.149 67.774C52.8443 68.0788 52.431 68.25 52 68.25H26C25.569 68.25 25.1557 68.0788 24.851 67.774C24.5462 67.4693 24.375 67.056 24.375 66.625V56.875C24.375 56.444 24.5462 56.0307 24.851 55.726C25.1557 55.4212 25.569 55.25 26 55.25H37.375V45.4334C29.5977 44.7915 23.114 39.585 20.6099 32.5H17.875C15.7201 32.5 13.6535 31.644 12.1298 30.1202C10.606 28.5965 9.75 26.5299 9.75 24.375V14.625C9.75 14.194 9.92121 13.7807 10.226 13.476C10.5307 13.1712 10.944 13 11.375 13H19.5V11.375ZM55.25 26V13H22.75V26C22.75 34.9749 30.0251 42.25 39 42.25C47.9749 42.25 55.25 34.9749 55.25 26ZM58.5 16.25V29.25H60.125C61.4179 29.25 62.6579 28.7364 63.5721 27.8221C64.4864 26.9079 65 25.6679 65 24.375V16.25H58.5ZM13 16.25H19.5V29.25H17.875C16.5821 29.25 15.3421 28.7364 14.4279 27.8221C13.5136 26.9079 13 25.6679 13 24.375V16.25ZM27.625 58.5V65H50.375V58.5H27.625Z" fill="#06376B"/>
<rect x="26" y="58" width="25" height="7" fill="#06376B"/>
</svg>
